<svg width="124" height="49" viewBox="0 0 124 49" fill="none" xmlns="http://www.w3.org/2000/svg">
<g id="Group 10">
<path id="Vector" d="M55.0816 35.4587C70.1502 44.2251 85.1544 46.4642 88.5946 40.46C92.0348 34.4557 82.6082 22.4818 67.5397 13.7153C52.4713 4.94891 37.467 2.70967 34.0268 8.71397C30.5867 14.7181 40.0132 26.6923 55.0816 35.4587Z" stroke="#959595" stroke-width="0.5" stroke-miterlimit="10"/>
<path id="Vector_2" d="M52.5016 33.4637C64.8049 45.8613 78.7228 51.9373 83.588 47.0349C88.4532 42.1324 82.4233 28.108 70.12 15.7103C57.8167 3.31274 43.8988 -2.76334 39.0336 2.13914C34.1685 7.04154 40.1983 21.0661 52.5016 33.4637Z" stroke="#CACACA" stroke-width="0.5" stroke-miterlimit="10"/>
<g id="OPENMIND">
<path d="M7.3701 30.0081C4.93873 30.0081 3.1 29.4875 1.85392 28.4462C0.617974 27.405 0 25.8635 0 23.8218C0 21.576 0.628105 19.9274 1.88431 18.8759C3.14052 17.8244 4.99444 17.2987 7.44608 17.2987C10.0598 17.2987 11.9745 17.8193 13.1902 18.8606C14.4059 19.8916 15.0137 21.4127 15.0137 23.4237C15.0137 25.7002 14.3704 27.3692 13.0838 28.4309C11.7972 29.4824 9.89265 30.0081 7.3701 30.0081ZM7.03578 24.6334H7.96275L8.40889 22.6626H6.58536L7.03578 24.6334Z" fill="black"/>
<path d="M15.7488 29.7325C15.6577 29.5181 15.5867 29.2476 15.5361 28.9209C15.4854 28.5942 15.455 28.2574 15.4449 27.9103C15.4348 27.553 15.4449 27.211 15.4753 26.8843C15.5158 26.5577 15.5715 26.2871 15.6425 26.0728C15.7944 26.0115 15.9413 25.9094 16.0831 25.7665C16.2351 25.6134 16.3617 25.3735 16.4631 25.0468C16.5644 24.71 16.615 24.2404 16.615 23.6381C16.615 22.9847 16.5542 22.4947 16.4327 22.1681C16.3212 21.8312 16.1845 21.6066 16.0224 21.4943C15.8704 21.3718 15.7336 21.3106 15.6121 21.3106C15.5209 21.1268 15.455 20.8767 15.4145 20.5603C15.374 20.2438 15.3537 19.9069 15.3537 19.5496C15.3639 19.1821 15.3943 18.83 15.4449 18.4931C15.4956 18.146 15.5715 17.85 15.6729 17.605C16.4225 17.6356 17.0962 17.6407 17.6939 17.6203C18.3018 17.5999 18.9046 17.5692 19.5023 17.5284C20.1101 17.4876 20.7686 17.4518 21.4778 17.4212C22.197 17.3804 23.043 17.36 24.0155 17.36C25.4439 17.36 26.6495 17.4876 27.6322 17.7428C28.6148 17.9878 29.3595 18.442 29.866 19.1056C30.3827 19.7589 30.641 20.693 30.641 21.9078C30.641 22.9592 30.4434 23.8014 30.0483 24.4343C29.6634 25.0672 29.1062 25.5266 28.3768 25.8125C27.6474 26.0881 26.7711 26.2259 25.7479 26.2259C25.0995 26.2259 24.5828 26.1749 24.1979 26.0728C23.8129 25.9605 23.4583 25.7155 23.1341 25.3378L22.815 25.6287C23.0784 25.9452 23.3975 26.1902 23.7724 26.3637C24.1472 26.527 24.6132 26.6189 25.1704 26.6393C25.2616 26.9252 25.2488 27.0695 25.4285 27.5626C25.5194 27.8122 25.4285 27.8689 25.7324 28.4814C25.8844 28.7876 26.1478 29.4104 26.0363 29.7064C25.5399 29.6656 23.8939 29.6253 23.0126 29.564C22.1413 29.5028 21.1434 29.4773 20.0189 29.4875C19.4516 29.4875 18.8944 29.5028 18.3474 29.5334C17.8003 29.564 17.2988 29.5946 16.843 29.6253C16.3972 29.6661 16.0325 29.7018 15.7488 29.7325ZM22.815 22.9796H23.742L24.3498 21.9537H22.2072L22.815 22.9796Z" fill="black"/>
<path d="M31.711 29.7325C31.63 29.5181 31.5641 29.2476 31.5135 28.9209C31.4628 28.5942 31.4324 28.2574 31.4223 27.9103C31.4223 27.553 31.4324 27.211 31.4527 26.8843C31.4831 26.5577 31.5337 26.2871 31.6046 26.0728C31.7667 26.0115 31.9238 25.9094 32.0757 25.7665C32.2277 25.6134 32.3543 25.3735 32.4556 25.0468C32.5569 24.71 33.2154 24.2404 33.2154 23.6381C33.2154 22.9847 32.5468 22.4947 32.4252 22.1681C32.3138 21.8312 32.177 21.6066 32.0149 21.4943C31.863 21.3718 31.7262 21.3106 31.6046 21.3106C31.5135 21.1268 31.4476 20.8767 31.4071 20.5603C31.3666 20.2438 31.3463 19.9069 31.3463 19.5496C31.3564 19.1821 31.3868 18.83 31.4375 18.4931C31.4881 18.146 31.5641 17.85 31.6654 17.605C31.8275 17.6152 32.0909 17.6305 32.4556 17.6509C32.8305 17.6611 33.261 17.6764 33.7473 17.6968C34.2437 17.707 34.7604 17.7172 35.2973 17.7275C35.8342 17.7377 36.361 17.7479 36.8777 17.7581C37.4045 17.7581 37.8756 17.7581 38.2909 17.7581C39.3546 17.7581 40.5349 17.7428 41.8316 17.7121C43.1385 17.6815 44.4352 17.6407 45.7218 17.5896C45.7724 17.7836 45.818 18.0643 45.8586 18.4318C45.8991 18.7993 45.9295 19.2077 45.9497 19.6568C45.97 20.106 45.9801 20.5603 45.9801 21.0196C45.9801 21.479 45.9649 21.9027 45.9345 22.2906C45.9041 22.6683 45.8586 22.9643 45.7978 23.1787C45.3216 23.24 44.7948 23.2808 44.2174 23.3012C43.6399 23.3216 43.0523 23.3216 42.4546 23.3012C41.8671 23.2808 41.3099 23.24 40.7831 23.1787C40.6615 22.6989 40.6615 21.6117 40.7831 21.1421H39.0203V22.3978H40.4336V24.5262H39.0051V25.7971H40.7831C40.6615 25.3174 40.6615 24.2251 40.7831 23.7453C41.634 23.6942 42.5053 23.6687 43.3968 23.6687C44.2883 23.6687 45.119 23.6942 45.889 23.7453C45.9193 23.929 45.9447 24.2251 45.9649 24.6334C45.9852 25.0315 45.9953 25.4858 45.9953 25.9962C45.9953 26.4964 45.9852 27.0017 45.9649 27.5121C45.9548 28.0226 45.9345 28.4768 45.9041 28.875C45.8738 29.2731 45.8332 29.5589 45.7826 29.7325C44.7189 29.712 43.5639 29.6661 42.3179 29.5946C41.0718 29.5334 39.851 29.5028 38.6556 29.5028C38.0072 29.5028 37.3234 29.5079 36.6041 29.5181C35.895 29.5385 35.2061 29.5589 34.5375 29.5793C33.879 29.61 33.2965 29.6355 32.7899 29.6559C32.2935 29.6865 31.9339 29.712 31.711 29.7325Z" fill="black"/>
<path d="M47.0358 29.7325C46.9547 29.5181 46.8889 29.2476 46.8382 28.9209C46.7876 28.5942 46.7572 28.2574 46.7471 27.9103C46.7471 27.553 46.7572 27.211 46.7774 26.8843C46.8078 26.5577 46.8585 26.2871 46.9294 26.0728C47.0915 26.0115 47.2485 25.9094 47.4005 25.7665C47.5524 25.6134 47.6791 25.3735 47.7804 25.0468C47.8817 24.71 47.9323 24.2404 47.9323 23.6381C47.9323 22.9847 47.8716 22.4947 47.75 22.1681C47.6386 21.8312 47.5018 21.6066 47.3397 21.4943C47.1877 21.3718 47.051 21.3106 46.9294 21.3106C46.8382 21.1268 46.7724 20.8767 46.7319 20.5603C46.6913 20.2438 46.6711 19.9069 46.6711 19.5496C46.6812 19.1821 46.7116 18.83 46.7622 18.4931C46.8129 18.146 46.8889 17.85 46.9902 17.605C47.2738 17.6254 47.6031 17.656 47.9779 17.6968C48.3629 17.7275 48.7529 17.7581 49.148 17.7887C49.5533 17.8091 49.9281 17.8193 50.2725 17.8193C51.0121 17.8193 51.7871 17.804 52.5975 17.7734C53.4181 17.7326 54.3704 17.6764 55.4544 17.605C55.2923 18.2787 55.2265 18.83 55.2569 19.2587C55.2974 19.6875 55.4848 20.0601 55.8191 20.3765C56.1534 20.693 56.6701 21.0196 57.3691 21.3565L58.1804 21.5096L57.5667 20.9584C56.9284 20.6521 56.4624 20.3663 56.1686 20.1009C55.885 19.8253 55.733 19.4986 55.7127 19.1209C55.6925 18.733 55.7583 18.2277 55.9103 17.605C56.3459 17.6152 56.8372 17.656 57.3843 17.7275C57.9415 17.7989 58.5747 17.8346 59.2838 17.8346C59.9119 17.8346 60.4792 17.8091 60.9858 17.7581C61.5024 17.6968 61.9685 17.6458 62.3838 17.605C62.475 17.85 62.5459 18.146 62.5966 18.4931C62.6472 18.83 62.6725 19.1821 62.6725 19.5496C62.6725 19.9171 62.6523 20.2591 62.6118 20.5756C62.5712 20.892 62.5104 21.1421 62.4294 21.3259C62.3078 21.3259 62.166 21.3871 62.0039 21.5096C61.852 21.6219 61.7203 21.8414 61.6088 22.1681C61.4974 22.4947 61.4417 22.9847 61.4417 23.6381C61.4417 24.2404 61.4923 24.71 61.5936 25.0468C61.6949 25.3735 61.8216 25.6134 61.9735 25.7665C62.1255 25.9094 62.2825 26.0115 62.4446 26.0728C62.5155 26.2871 62.5611 26.5577 62.5814 26.8843C62.6118 27.211 62.6219 27.553 62.6118 27.9103C62.6118 28.2574 62.5864 28.5942 62.5358 28.9209C62.4851 29.2476 62.4193 29.5181 62.3382 29.7325C61.933 29.6814 61.4214 29.6253 60.8034 29.564C60.1956 29.513 59.5624 29.4875 58.9039 29.4875C58.0529 29.4875 57.2273 29.5181 56.427 29.5793C55.6266 29.6406 54.7604 29.6916 53.8284 29.7325C53.9703 29.0587 54.026 28.4921 53.9956 28.0328C53.9652 27.5734 53.8284 27.1702 53.5853 26.8231C53.3421 26.4658 52.9774 26.1289 52.4912 25.8125L51.5658 25.4189L52.248 26.18C52.6837 26.476 53.0028 26.7874 53.2054 27.114C53.408 27.4305 53.5144 27.8031 53.5245 28.2318C53.5448 28.6504 53.489 29.1506 53.3573 29.7325C53.023 29.6916 52.6127 29.6406 52.1265 29.5793C51.6503 29.5181 51.083 29.4875 50.4245 29.4875C49.8065 29.4875 49.1886 29.5181 48.5706 29.5793C47.9627 29.6406 47.4511 29.6916 47.0358 29.7325Z" fill="black"/>
<path d="M63.635 29.7325C63.554 29.5181 63.4881 29.2476 63.4375 28.9209C63.3868 28.5942 63.3564 28.2574 63.3463 27.9103C63.3463 27.553 63.3564 27.211 63.3767 26.8843C63.4071 26.5577 63.4577 26.2871 63.5286 26.0728C63.6907 26.0115 63.8629 25.9094 64.0453 25.7665C64.2276 25.6236 64.3999 25.3888 64.562 25.0621C64.7342 24.7355 64.8659 24.2761 64.9571 23.684C65.0381 23.194 65.0584 22.7959 65.0178 22.4896C64.9773 22.1732 64.9013 21.9333 64.7899 21.77C64.6886 21.5964 64.5772 21.479 64.4556 21.4178C64.3442 21.3463 64.2479 21.3106 64.1669 21.3106C64.0757 21.1268 64.0098 20.8767 63.9693 20.5603C63.9288 20.2438 63.9085 19.9069 63.9085 19.5496C63.9187 19.1821 63.9491 18.83 63.9997 18.4931C64.0504 18.146 64.1263 17.85 64.2276 17.605C64.6126 17.6458 65.0786 17.6917 65.6257 17.7428C66.1829 17.7938 66.811 17.8193 67.51 17.8193C68.0773 17.8193 68.675 17.8091 69.3031 17.7887C69.9414 17.7683 70.5593 17.7428 71.1571 17.7121C71.7548 17.6815 72.2765 17.6458 72.7223 17.605C72.6615 17.9929 72.6463 18.4778 72.6767 19.0596C72.7172 19.6415 72.8742 20.203 73.1478 20.744C73.1579 20.1826 73.1731 19.6211 73.1933 19.0596C73.2237 18.488 73.2744 18.0031 73.3453 17.605C73.7708 17.6254 74.1709 17.656 74.5458 17.6968C74.9206 17.7275 75.3107 17.7581 75.7159 17.7887C76.1312 17.8091 76.6023 17.8193 77.1291 17.8193C77.4736 17.8193 77.8687 17.8091 78.3144 17.7887C78.7602 17.7581 79.1907 17.7275 79.6061 17.6968C80.0214 17.656 80.3558 17.6254 80.609 17.605C80.7103 17.85 80.7863 18.146 80.837 18.4931C80.8876 18.83 80.9129 19.1821 80.9129 19.5496C80.9231 19.9069 80.9079 20.2438 80.8673 20.5603C80.8268 20.8767 80.761 21.1268 80.6698 21.3106C80.5989 21.3106 80.5026 21.3463 80.3811 21.4178C80.2696 21.479 80.1633 21.5964 80.062 21.77C79.9708 21.9333 79.9151 22.1681 79.8948 22.4743C79.8745 22.7704 79.9151 23.1634 80.0164 23.6534C80.1481 24.2455 80.2899 24.71 80.4419 25.0468C80.604 25.3735 80.766 25.6134 80.9281 25.7665C81.1004 25.9094 81.2675 26.0115 81.4296 26.0728C81.5005 26.2871 81.5461 26.5577 81.5664 26.8843C81.5968 27.211 81.6069 27.553 81.5968 27.9103C81.5968 28.2574 81.5714 28.5942 81.5208 28.9209C81.4701 29.2476 81.4043 29.5181 81.3232 29.7325C80.9079 29.6916 80.4013 29.6406 79.8036 29.5793C79.216 29.5181 78.4714 29.4875 77.5698 29.4875C76.7087 29.4875 75.8881 29.5181 75.108 29.5793C74.3381 29.6406 73.7455 29.6916 73.3301 29.7325C73.2896 29.5181 73.2541 29.2476 73.2237 28.9209C73.1933 28.5942 73.1731 28.2574 73.1629 27.9103C73.1528 27.553 73.1528 27.211 73.1629 26.8843C73.1731 26.5577 73.1933 26.2871 73.2237 26.0728H73.7556L73.6036 24.3578L72.7071 26.9609L69.759 25.6593L69.5767 26.0728L71.233 26.8231C71.466 26.9252 71.6889 27.0375 71.9017 27.16C72.1144 27.2722 72.2968 27.4254 72.4487 27.6193C72.6007 27.8133 72.702 28.0787 72.7526 28.4156C72.8134 28.7422 72.8033 29.1812 72.7223 29.7325C72.5298 29.712 72.2613 29.6865 71.9169 29.6559C71.5724 29.6355 71.1875 29.61 70.762 29.5793C70.3466 29.5589 69.916 29.5385 69.4703 29.5181C69.0347 29.4977 68.6244 29.4875 68.2394 29.4875C67.1149 29.4875 66.1626 29.5181 65.3826 29.5793C64.6126 29.6406 64.0301 29.6916 63.635 29.7325Z" fill="black"/>
<path d="M82.657 29.7325C82.5659 29.5181 82.495 29.2476 82.4443 28.9209C82.3937 28.5942 82.3633 28.2574 82.3531 27.9103C82.343 27.553 82.3531 27.211 82.3835 26.8843C82.424 26.5577 82.4798 26.2871 82.5507 26.0728C82.7026 26.0115 82.8546 25.9094 83.0066 25.7665C83.1686 25.6134 83.3003 25.3735 83.4017 25.0468C83.503 24.71 83.5536 24.2404 83.5536 23.6381C83.5536 22.9847 83.4928 22.4947 83.3713 22.1681C83.2497 21.8312 83.1079 21.6066 82.9458 21.4943C82.7938 21.3718 82.6621 21.3106 82.5507 21.3106C82.4595 21.1268 82.3886 20.8767 82.3379 20.5603C82.2873 20.2438 82.2619 19.9069 82.2619 19.5496C82.2721 19.1821 82.3025 18.83 82.3531 18.4931C82.4139 18.146 82.5 17.85 82.6115 17.605C82.9154 17.6254 83.3054 17.656 83.7816 17.6968C84.2577 17.7377 84.7592 17.7734 85.286 17.804C85.8229 17.8244 86.3193 17.8346 86.7752 17.8346C87.2817 17.8346 87.8035 17.8244 88.3404 17.804C88.8773 17.7734 89.3838 17.7377 89.86 17.6968C90.3361 17.656 90.7262 17.6254 91.0301 17.605C91.1314 17.85 91.2074 18.146 91.258 18.4931C91.3087 18.83 91.334 19.1821 91.334 19.5496C91.334 19.9171 91.3137 20.2591 91.2732 20.5756C91.2327 20.892 91.1668 21.1421 91.0757 21.3259C90.9237 21.3259 90.7718 21.3871 90.6198 21.5096C90.4678 21.6219 90.3412 21.8414 90.2399 22.1681C90.1386 22.4947 90.0879 22.9847 90.0879 23.6381C90.0879 24.2404 90.1386 24.71 90.2399 25.0468C90.3513 25.3735 90.483 25.6134 90.635 25.7665C90.7869 25.9094 90.9389 26.0115 91.0909 26.0728C91.1719 26.2871 91.2276 26.5577 91.258 26.8843C91.2884 27.211 91.2985 27.553 91.2884 27.9103C91.2783 28.2574 91.2479 28.5942 91.1972 28.9209C91.1466 29.2476 91.0757 29.5181 90.9845 29.7325C90.6806 29.7018 90.2905 29.6661 89.8144 29.6253C89.3383 29.5946 88.8317 29.564 88.2948 29.5334C87.7579 29.5028 87.2361 29.4875 86.7296 29.4875C86.2636 29.4875 85.7722 29.5028 85.2556 29.5334C84.749 29.564 84.2628 29.5946 83.7968 29.6253C83.3409 29.6661 82.961 29.7018 82.657 29.7325Z" fill="black"/>
<path d="M116.539 29.8396C115.728 29.8396 115.019 29.8243 114.411 29.7937C113.804 29.7733 113.231 29.7478 112.694 29.7171C112.157 29.6967 111.6 29.6814 111.023 29.6712C110.445 29.6712 109.782 29.6865 109.032 29.7171C108.951 29.5028 108.885 29.2374 108.834 28.9209C108.784 28.5942 108.753 28.2522 108.743 27.895C108.743 27.5377 108.753 27.2008 108.774 26.8843C108.804 26.5577 108.855 26.2871 108.926 26.0728C109.138 26.0115 109.321 25.8992 109.473 25.7359C109.625 25.5623 109.741 25.2969 109.822 24.9396C109.903 24.5824 109.944 24.0975 109.944 23.485C109.944 22.9031 109.893 22.459 109.792 22.1528C109.701 21.8465 109.579 21.6321 109.427 21.5096C109.275 21.3871 109.108 21.3106 108.926 21.28C108.824 20.9839 108.753 20.6113 108.713 20.1621C108.672 19.7028 108.672 19.2383 108.713 18.7687C108.764 18.2889 108.855 17.8806 108.986 17.5437C109.635 17.605 110.248 17.6356 110.825 17.6356C111.413 17.6356 112.015 17.6254 112.633 17.605C113.251 17.5743 113.925 17.5488 114.655 17.5284C115.384 17.4978 116.22 17.4825 117.162 17.4825C119.31 17.4825 120.951 17.9316 122.085 18.83C123.23 19.7283 123.803 21.1677 123.803 23.1481C123.803 23.8116 123.742 24.4701 123.62 25.1234C123.509 25.7665 123.301 26.3739 122.997 26.9456C122.703 27.507 122.283 28.0072 121.736 28.4462C121.189 28.875 120.49 29.2169 119.639 29.4721C118.798 29.7171 117.765 29.8396 116.539 29.8396ZM115.855 24.5568H116.782L117.39 22.5815H115.247L115.855 24.5568Z" fill="black"/>
<path d="M92.5847 29.717C92.5037 29.5026 92.4378 29.2321 92.3872 28.9055C92.3365 28.5788 92.3061 28.2419 92.296 27.8948C92.296 27.5375 92.3061 27.1956 92.3264 26.8689C92.3568 26.5422 92.4074 26.2717 92.4784 26.0573C92.6404 25.9961 92.7975 25.894 92.9494 25.7511C93.1014 25.598 93.228 25.3581 93.3293 25.0314C93.4306 24.6945 93.4813 24.2249 93.4813 23.6226C93.4813 22.9693 93.4205 22.4793 93.2989 22.1526C93.1875 21.8158 93.0507 21.5912 92.8886 21.4789C92.7367 21.3564 92.5999 21.2951 92.4784 21.2951C92.3872 21.1114 92.3213 20.8613 92.2808 20.5448C92.2403 20.2284 92.22 19.8915 92.22 19.5342C92.2301 19.1667 92.2605 18.8145 92.3112 18.4776C92.3618 18.1306 92.4378 17.8345 92.5391 17.5895C92.8228 17.6099 93.152 17.6406 93.5269 17.6814C93.9118 17.712 94.3019 17.7426 94.697 17.7733C95.1022 17.7937 95.477 17.8039 95.8215 17.8039C96.561 17.8039 97.336 17.7886 98.1465 17.758C98.9671 17.7171 99.9194 17.661 101.003 17.5895C100.841 18.2633 100.775 18.8145 100.806 19.2433C100.846 19.672 101.034 20.0446 101.368 20.3611C101.702 20.6775 102.219 21.0042 102.918 21.3411L103.729 21.4942L103.116 20.943C102.477 20.6367 102.011 20.3509 101.718 20.0855C101.434 19.8098 101.282 19.4832 101.262 19.1055C101.241 18.7175 101.307 18.2122 101.459 17.5895C101.895 17.5997 102.386 17.6406 102.933 17.712C103.49 17.7835 104.124 17.8192 104.833 17.8192C105.461 17.8192 106.028 17.7937 106.535 17.7426C107.051 17.6814 107.517 17.6303 107.933 17.5895C108.024 17.8345 108.095 18.1306 108.146 18.4776C108.196 18.8145 108.221 19.1667 108.221 19.5342C108.221 19.9017 108.201 20.2437 108.161 20.5601C108.12 20.8766 108.059 21.1267 107.978 21.3105C107.857 21.3105 107.715 21.3717 107.553 21.4942C107.401 21.6065 107.269 21.826 107.158 22.1526C107.046 22.4793 106.991 22.9693 106.991 23.6226C106.991 24.2249 107.041 24.6945 107.143 25.0314C107.244 25.3581 107.371 25.598 107.522 25.7511C107.674 25.894 107.831 25.9961 107.994 26.0573C108.064 26.2717 108.11 26.5422 108.13 26.8689C108.161 27.1956 108.171 27.5375 108.161 27.8948C108.161 28.2419 108.135 28.5788 108.085 28.9055C108.034 29.2321 107.968 29.5026 107.887 29.717C107.482 29.666 106.97 29.6098 106.352 29.5486C105.745 29.4975 105.111 29.472 104.453 29.472C103.602 29.472 102.776 29.5026 101.976 29.5639C101.176 29.6251 100.309 29.6762 99.3774 29.717C99.5192 29.0433 99.5749 28.4767 99.5445 28.0173C99.5141 27.558 99.3774 27.1547 99.1342 26.8076C98.8911 26.4503 98.5264 26.1135 98.0401 25.797L97.1147 25.4035L97.797 26.1645C98.2326 26.4606 98.5517 26.7719 98.7543 27.0986C98.9569 27.415 99.0633 27.7876 99.0734 28.2164C99.0937 28.6349 99.038 29.1351 98.9063 29.717C98.572 29.6762 98.1617 29.6251 97.6754 29.5639C97.1993 29.5026 96.632 29.472 95.9734 29.472C95.3555 29.472 94.7375 29.5026 94.1195 29.5639C93.5117 29.6251 93.0001 29.6762 92.5847 29.717Z" fill="black"/>
</g>
<g id="OPENMIND_2">
<path d="M36.2514 37.4606C35.7512 37.4606 35.369 37.3234 35.1046 37.049C34.75 36.7125 34.5728 36.2276 34.5728 35.5944C34.5728 34.9484 34.75 34.4635 35.1046 34.1397C35.369 33.8653 35.7512 33.7281 36.2514 33.7281C36.7516 33.7281 37.1339 33.8653 37.3983 34.1397C37.7513 34.4635 37.9278 34.9484 37.9278 35.5944C37.9278 36.2276 37.7513 36.7125 37.3983 37.049C37.1339 37.3234 36.7516 37.4606 36.2514 37.4606ZM36.9424 36.5131C37.1118 36.2978 37.1965 35.9915 37.1965 35.5944C37.1965 35.1988 37.111 34.8933 36.94 34.678C36.7706 34.4611 36.5411 34.3526 36.2514 34.3526C35.9618 34.3526 35.7307 34.4603 35.5581 34.6756C35.3856 34.8909 35.2993 35.1972 35.2993 35.5944C35.2993 35.9915 35.3856 36.2978 35.5581 36.5131C35.7307 36.7284 35.9618 36.8361 36.2514 36.8361C36.5411 36.8361 36.7714 36.7284 36.9424 36.5131Z" fill="black"/>
<path d="M44.047 36.0944H43.3039V37.3625H42.5773V33.8358H44.1016C44.4531 33.8358 44.7332 33.9267 44.9422 34.1086C45.1511 34.2904 45.2556 34.5719 45.2556 34.9531C45.2556 35.3695 45.1511 35.6637 44.9422 35.836C44.7332 36.0083 44.4349 36.0944 44.047 36.0944ZM44.3889 35.3599C44.4839 35.2753 44.5314 35.1414 44.5314 34.9579C44.5314 34.7745 44.4831 34.6437 44.3866 34.5656C44.2916 34.4874 44.1578 34.4483 43.9853 34.4483H43.3039V35.4867H43.9853C44.1578 35.4867 44.2924 35.4444 44.3889 35.3599Z" fill="black"/>
<path d="M52.3127 35.8217H50.6127V36.7284H52.5502V37.3625H49.898V33.8358H52.4647V34.4603H50.6127V35.2092H52.3127V35.8217Z" fill="black"/>
<path d="M60.0229 37.3625H59.2915L57.8622 34.8574V37.3625H57.1807V33.8358H57.9476L59.3414 36.2978V33.8358H60.0229V37.3625Z" fill="black"/>
<path d="M65.4488 37.3625H64.7674V33.8358H65.8311L66.4674 36.6088L67.099 33.8358H68.1509V37.3625H67.4694V34.9771C67.4694 34.9085 67.4702 34.8128 67.4718 34.69C67.4734 34.5656 67.4742 34.4698 67.4742 34.4029L66.8117 37.3625H66.1018L65.4441 34.4029C65.4441 34.4698 65.4449 34.5656 65.4464 34.69C65.448 34.8128 65.4488 34.9085 65.4488 34.9771V37.3625Z" fill="black"/>
<path d="M72.8455 33.8358H73.5721V37.3625H72.8455V33.8358Z" fill="black"/>
<path d="M81.1587 37.3625H80.4274L78.998 34.8574V37.3625H78.3166V33.8358H79.0835L80.4773 36.2978V33.8358H81.1587V37.3625Z" fill="black"/>
<path d="M87.4228 37.3625H85.9151V33.8358H87.4228C87.6397 33.839 87.8201 33.8645 87.9642 33.9124C88.2095 33.9937 88.4082 34.1429 88.5601 34.3598C88.682 34.5352 88.7651 34.7251 88.8095 34.9292C88.8538 35.1334 88.8759 35.328 88.8759 35.513C88.8759 35.982 88.7825 36.3791 88.5958 36.7045C88.3425 37.1432 87.9515 37.3625 87.4228 37.3625ZM87.9665 34.7354C87.8542 34.544 87.6318 34.4483 87.2993 34.4483H86.625V36.75H87.2993C87.6444 36.75 87.885 36.5785 88.0212 36.2356C88.0956 36.0474 88.1328 35.8233 88.1328 35.5633C88.1328 35.2044 88.0773 34.9284 87.9665 34.7354Z" fill="black"/>
</g>
</g>
</svg>
