<svg xmlns="http://www.w3.org/2000/svg" width="18" height="18" viewBox="0 0 18 18" fill="none">
  <g clip-path="url(#clip0_1_366)">
    <path fill-rule="evenodd" clip-rule="evenodd" d="M9.71176 2.19787C10.5251 1.41232 11.6145 0.977642 12.7452 0.987468C13.8759 0.997293 14.9575 1.45083 15.7571 2.25041C16.5567 3.04998 17.0102 4.13161 17.02 5.26233C17.0299 6.39305 16.5952 7.4824 15.8096 8.29575L15.8028 8.30278L13.5529 10.5527C13.1157 10.99 12.5895 11.3282 12.0101 11.5443C11.4307 11.7605 10.8117 11.8495 10.1948 11.8053C9.57803 11.7611 8.97793 11.5848 8.43525 11.2883C7.89257 10.9918 7.42001 10.5821 7.0496 10.0869C6.86352 9.83813 6.91434 9.48562 7.16311 9.29954C7.41187 9.11347 7.76439 9.16428 7.95046 9.41305C8.22424 9.77906 8.57353 10.0819 8.97464 10.301C9.37575 10.5202 9.8193 10.6505 10.2752 10.6832C10.7311 10.7158 11.1887 10.65 11.6169 10.4903C12.0452 10.3305 12.4341 10.0806 12.7572 9.7573L15.0037 7.51082C15.5823 6.91002 15.9023 6.1063 15.8951 5.27211C15.8878 4.43635 15.5526 3.63689 14.9616 3.0459C14.3706 2.45491 13.5712 2.11969 12.7354 2.11243C11.9009 2.10517 11.097 2.42544 10.4961 3.00436L9.20912 4.28388C8.98881 4.50291 8.63266 4.50187 8.41363 4.28156C8.1946 4.06125 8.19564 3.7051 8.41595 3.48607L9.71176 2.19787Z" fill="white"/>
    <path fill-rule="evenodd" clip-rule="evenodd" d="M5.99004 6.45556C6.56944 6.23943 7.18853 6.15044 7.80534 6.19461C8.42215 6.23879 9.02225 6.4151 9.56493 6.71159C10.1076 7.00808 10.5802 7.41781 10.9506 7.913C11.1367 8.16176 11.0858 8.51428 10.8371 8.70035C10.5883 8.88643 10.2358 8.83562 10.0497 8.58685C9.77594 8.22084 9.42665 7.918 9.02554 7.69885C8.62443 7.47971 8.18088 7.34939 7.72498 7.31674C7.26908 7.28409 6.81148 7.34987 6.38324 7.50961C5.95499 7.66936 5.56611 7.91934 5.24297 8.2426L2.99649 10.4891C2.41792 11.0899 2.09785 11.8936 2.1051 12.7278C2.11236 13.5635 2.44759 14.363 3.03858 14.954C3.62957 15.545 4.42903 15.8802 5.26478 15.8875C6.09897 15.8947 6.90269 15.5747 7.5035 14.9961L8.7824 13.7172C9.00207 13.4975 9.35823 13.4975 9.5779 13.7172C9.79757 13.9368 9.79757 14.293 9.5779 14.5127L8.28848 15.8021C7.47514 16.5876 6.38573 17.0223 5.25501 17.0124C4.12428 17.0026 3.04266 16.5491 2.24308 15.7495C1.44351 14.9499 0.989969 13.8683 0.980143 12.7376C0.970318 11.6068 1.40499 10.5175 2.19055 9.70415L2.19734 9.69712L4.44733 7.44725C4.44731 7.44727 4.44735 7.44723 4.44733 7.44725C4.88451 7.00994 5.41068 6.67168 5.99004 6.45556Z" fill="white"/>
  </g>
  <defs>
    <clipPath id="clip0_1_366">
      <rect width="18" height="18" fill="white"/>
    </clipPath>
  </defs>
</svg>